<svg width="98" height="118" viewBox="0 0 98 118" fill="none" xmlns="http://www.w3.org/2000/svg">
<path d="M97.1416 71.1317C97.1416 102.161 97.1416 117.451 68.7674 117.804C68.2152 117.811 67.7477 117.363 67.7477 116.811V101.383C67.7477 100.831 68.1979 100.385 68.7499 100.367C84.7086 99.8691 96.9263 87.4922 97.1416 71.1317Z" fill="url(#paint0_linear_795_805)"/>
<ellipse cx="67.4898" cy="71.3951" rx="29.6518" ry="30.2827" transform="rotate(180 67.4898 71.3951)" fill="url(#paint1_linear_795_805)"/>
<path d="M0 46.6788C0 15.65 0 0.359819 28.3742 0.00626399C28.9264 -0.000617194 29.3939 0.447702 29.3939 0.999987V16.4275C29.3939 16.9798 28.9437 17.4259 28.3917 17.4431C12.433 17.9415 0.215347 30.3183 0 46.6788Z" fill="url(#paint2_linear_795_805)"/>
<ellipse cx="29.6518" cy="46.4155" rx="29.6518" ry="30.2827" fill="url(#paint3_linear_795_805)"/>
<defs>
<linearGradient id="paint0_linear_795_805" x1="67.7477" y1="117.811" x2="109.843" y2="91.3026" gradientUnits="userSpaceOnUse">
<stop stop-color="#1B69D2"/>
<stop offset="1" stop-color="#07346F"/>
</linearGradient>
<linearGradient id="paint1_linear_795_805" x1="97.1416" y1="41.1124" x2="36.5897" y2="100.403" gradientUnits="userSpaceOnUse">
<stop stop-color="#1B69D2"/>
<stop offset="1" stop-color="#07346F"/>
</linearGradient>
<linearGradient id="paint2_linear_795_805" x1="8.78001" y1="-1.24683" x2="18.9853" y2="30.4243" gradientUnits="userSpaceOnUse">
<stop stop-color="#5390E3"/>
<stop offset="1" stop-color="#1357B3"/>
</linearGradient>
<linearGradient id="paint3_linear_795_805" x1="55.0676" y1="21.6388" x2="4.33728" y2="71.6972" gradientUnits="userSpaceOnUse">
<stop stop-color="#5390E3"/>
<stop offset="1" stop-color="#1357B3"/>
</linearGradient>
</defs>
</svg>
