<svg width="36" height="36" viewBox="0 0 36 36" fill="none" xmlns="http://www.w3.org/2000/svg">
<path d="M31.4998 23.9999V11.9999C31.4993 11.4738 31.3604 10.9571 31.0971 10.5016C30.8338 10.0461 30.4554 9.6679 29.9998 9.40485L19.4998 3.40485C19.0438 3.14155 18.5264 3.00293 17.9998 3.00293C17.4732 3.00293 16.9559 3.14155 16.4998 3.40485L5.99982 9.40485C5.54421 9.6679 5.16579 10.0461 4.90251 10.5016C4.63923 10.9571 4.50036 11.4738 4.49982 11.9999V23.9999C4.50036 24.5259 4.63923 25.0426 4.90251 25.4981C5.16579 25.9536 5.54421 26.3318 5.99982 26.5949L16.4998 32.5949C16.9559 32.8582 17.4732 32.9968 17.9998 32.9968C18.5264 32.9968 19.0438 32.8582 19.4998 32.5949L29.9998 26.5949C30.4554 26.3318 30.8338 25.9536 31.0971 25.4981C31.3604 25.0426 31.4993 24.5259 31.4998 23.9999Z" stroke="url(#paint0_linear_3_533)" stroke-width="3.00312" stroke-linecap="round" stroke-linejoin="round"/>
<path d="M4.90411 10.4399L17.9991 18.0149L31.0941 10.4399" stroke="url(#paint1_linear_3_533)" stroke-width="3.00312" stroke-linecap="round" stroke-linejoin="round"/>
<path d="M17.9998 33.12V18" stroke="url(#paint2_linear_3_533)" stroke-width="3.00312" stroke-linecap="round" stroke-linejoin="round"/>
<defs>
<linearGradient id="paint0_linear_3_533" x1="29.5712" y1="5.72964" x2="4.56457" y2="28.4148" gradientUnits="userSpaceOnUse">
<stop stop-color="#5390E3"/>
<stop offset="1" stop-color="#1357B3"/>
</linearGradient>
<linearGradient id="paint1_linear_3_533" x1="29.2234" y1="11.1286" x2="25.8582" y2="22.8537" gradientUnits="userSpaceOnUse">
<stop stop-color="#5390E3"/>
<stop offset="1" stop-color="#1357B3"/>
</linearGradient>
<linearGradient id="paint2_linear_3_533" x1="18.9284" y1="19.3745" x2="17.2475" y2="19.4866" gradientUnits="userSpaceOnUse">
<stop stop-color="#5390E3"/>
<stop offset="1" stop-color="#1357B3"/>
</linearGradient>
</defs>
</svg>
