<svg width="36" height="36" viewBox="0 0 36 36" fill="none" xmlns="http://www.w3.org/2000/svg">
<path d="M18.0004 12C25.4562 12 31.5004 9.98528 31.5004 7.5C31.5004 5.01472 25.4562 3 18.0004 3C10.5445 3 4.50037 5.01472 4.50037 7.5C4.50037 9.98528 10.5445 12 18.0004 12Z" stroke="url(#paint0_linear_3_572)" stroke-width="3.00312" stroke-linecap="round" stroke-linejoin="round"/>
<path d="M31.5004 18C31.5004 20.49 25.5004 22.5 18.0004 22.5C10.5004 22.5 4.50037 20.49 4.50037 18" stroke="url(#paint1_linear_3_572)" stroke-width="3.00312" stroke-linecap="round" stroke-linejoin="round"/>
<path d="M4.50037 7.5V28.5C4.50037 30.99 10.5004 33 18.0004 33C25.5004 33 31.5004 30.99 31.5004 28.5V7.5" stroke="url(#paint2_linear_3_572)" stroke-width="3.00312" stroke-linecap="round" stroke-linejoin="round"/>
<defs>
<linearGradient id="paint0_linear_3_572" x1="29.5718" y1="3.81818" x2="25.0762" y2="17.4095" gradientUnits="userSpaceOnUse">
<stop stop-color="#5390E3"/>
<stop offset="1" stop-color="#1357B3"/>
</linearGradient>
<linearGradient id="paint1_linear_3_572" x1="29.5718" y1="18.4091" x2="28.3581" y2="25.7476" gradientUnits="userSpaceOnUse">
<stop stop-color="#5390E3"/>
<stop offset="1" stop-color="#1357B3"/>
</linearGradient>
<linearGradient id="paint2_linear_3_572" x1="29.5718" y1="9.81818" x2="8.25565" y2="32.5632" gradientUnits="userSpaceOnUse">
<stop stop-color="#5390E3"/>
<stop offset="1" stop-color="#1357B3"/>
</linearGradient>
</defs>
</svg>
