<svg width="36" height="36" viewBox="0 0 36 36" fill="none" xmlns="http://www.w3.org/2000/svg">
<path d="M17.9995 4.03491L26.4895 12.5249C28.1685 14.2028 29.3122 16.341 29.7758 18.669C30.2395 20.997 30.0023 23.4102 29.0943 25.6034C28.1862 27.7965 26.6482 29.6711 24.6746 30.9901C22.7011 32.309 20.3807 33.013 18.007 33.013C15.6333 33.013 13.3129 32.309 11.3393 30.9901C9.36574 29.6711 7.82768 27.7965 6.91966 25.6034C6.01164 23.4102 5.77446 20.997 6.23812 18.669C6.70178 16.341 7.84545 14.2028 9.52446 12.5249L17.9995 4.03491Z" stroke="url(#paint0_linear_3_579)" stroke-width="3.00312" stroke-linecap="round" stroke-linejoin="round"/>
<defs>
<linearGradient id="paint0_linear_3_579" x1="28.2927" y1="6.66928" x2="4.40939" y2="26.6031" gradientUnits="userSpaceOnUse">
<stop stop-color="#5390E3"/>
<stop offset="1" stop-color="#1357B3"/>
</linearGradient>
</defs>
</svg>
