<svg width="36" height="36" viewBox="0 0 36 36" fill="none" xmlns="http://www.w3.org/2000/svg">
<g clip-path="url(#clip0_3_610)">
<path d="M23.9996 32.9999V27.1949C24.0559 26.4797 23.9592 25.7606 23.7161 25.0856C23.473 24.4106 23.089 23.795 22.5896 23.2799C27.2996 22.7549 32.2496 20.9699 32.2496 12.7799C32.2492 10.6856 31.4436 8.67171 29.9996 7.15491C30.6834 5.32267 30.635 3.29743 29.8646 1.49991C29.8646 1.49991 28.0946 0.974906 23.9996 3.71991C20.5616 2.78814 16.9376 2.78814 13.4996 3.71991C9.4046 0.974906 7.6346 1.49991 7.6346 1.49991C6.86417 3.29743 6.81582 5.32267 7.4996 7.15491C6.04479 8.68296 5.23839 10.7151 5.2496 12.8249C5.2496 20.9549 10.1996 22.7399 14.9096 23.3249C14.4161 23.8349 14.0355 24.443 13.7926 25.1098C13.5496 25.7766 13.4498 26.487 13.4996 27.1949V32.9999M13.4996 28.4999C5.9996 30.7499 5.9996 24.7499 2.9996 23.9999L13.4996 28.4999Z" stroke="url(#paint0_linear_3_610)" stroke-width="3.00312" stroke-linecap="round" stroke-linejoin="round"/>
</g>
<defs>
<linearGradient id="paint0_linear_3_610" x1="30.1603" y1="4.32701" x2="3.79986" y2="28.9629" gradientUnits="userSpaceOnUse">
<stop stop-color="#5390E3"/>
<stop offset="1" stop-color="#1357B3"/>
</linearGradient>
<clipPath id="clip0_3_610">
<rect width="36" height="36" fill="white"/>
</clipPath>
</defs>
</svg>
