<svg width="36" height="36" viewBox="0 0 36 36" fill="none" xmlns="http://www.w3.org/2000/svg">
<g clip-path="url(#clip0_3_612)">
<path d="M33.9749 21.5853L17.9998 33.1953L2.02485 21.5853C1.81069 21.4278 1.65183 21.2066 1.571 20.9533C1.49018 20.7001 1.49152 20.4278 1.57485 20.1753L3.40485 14.5053L7.06485 3.24031C7.10035 3.14852 7.15686 3.06632 7.22985 3.00031C7.34871 2.89174 7.50387 2.83154 7.66485 2.83154C7.82583 2.83154 7.98099 2.89174 8.09985 3.00031C8.17692 3.0748 8.23372 3.16774 8.26485 3.27031L11.9249 14.5053H24.0748L27.7349 3.24031C27.7704 3.14852 27.8269 3.06632 27.8999 3.00031C28.0187 2.89174 28.1739 2.83154 28.3349 2.83154C28.4958 2.83154 28.651 2.89174 28.7699 3.00031C28.8469 3.0748 28.9037 3.16774 28.9349 3.27031L32.5949 14.5353L34.4999 20.1753C34.5756 20.4355 34.5655 20.7133 34.4709 20.9673C34.3763 21.2213 34.2024 21.438 33.9749 21.5853V21.5853Z" stroke="url(#paint0_linear_3_612)" stroke-width="3.00312" stroke-linecap="round" stroke-linejoin="round"/>
</g>
<defs>
<linearGradient id="paint0_linear_3_612" x1="32.1902" y1="5.59189" x2="6.86247" y2="33.3646" gradientUnits="userSpaceOnUse">
<stop stop-color="#5390E3"/>
<stop offset="1" stop-color="#1357B3"/>
</linearGradient>
<clipPath id="clip0_3_612">
<rect width="36" height="36" fill="white"/>
</clipPath>
</defs>
</svg>
