<svg width="36" height="36" viewBox="0 0 36 36" fill="none" xmlns="http://www.w3.org/2000/svg">
<path d="M31.2602 6.91481C30.494 6.14832 29.5844 5.54028 28.5832 5.12543C27.582 4.71059 26.5089 4.49707 25.4252 4.49707C24.3414 4.49707 23.2683 4.71059 22.2671 5.12543C21.266 5.54028 20.3563 6.14832 19.5902 6.91481L18.0002 8.50481L16.4102 6.91481C14.8626 5.36727 12.7637 4.49787 10.5752 4.49787C8.38663 4.49787 6.28772 5.36727 4.74018 6.91481C3.19264 8.46235 2.32324 10.5613 2.32324 12.7498C2.32324 14.9384 3.19264 17.0373 4.74018 18.5848L6.33018 20.1748L18.0002 31.8448L29.6702 20.1748L31.2602 18.5848C32.0267 17.8187 32.6347 16.909 33.0496 15.9078C33.4644 14.9067 33.6779 13.8335 33.6779 12.7498C33.6779 11.6661 33.4644 10.593 33.0496 9.59178C32.6347 8.59059 32.0267 7.68094 31.2602 6.91481V6.91481Z" stroke="url(#paint0_linear_3_628)" stroke-width="3.00312" stroke-linecap="round" stroke-linejoin="round"/>
<defs>
<linearGradient id="paint0_linear_3_628" x1="31.4383" y1="6.98323" x2="8.76639" y2="33.1785" gradientUnits="userSpaceOnUse">
<stop stop-color="#5390E3"/>
<stop offset="1" stop-color="#1357B3"/>
</linearGradient>
</defs>
</svg>
