<svg width="64" height="64" viewBox="0 0 64 64" fill="none" xmlns="http://www.w3.org/2000/svg">
<circle cx="32" cy="32" r="28" fill="#151B26"/>
<path d="M34.8515 25.0999V19.9C34.8515 18.8656 34.434 17.8737 33.6908 17.1423C32.9476 16.4109 31.9397 16 30.8886 16L25.6048 27.6999V41.9998H40.5052C41.1424 42.0069 41.7606 41.7872 42.2461 41.381C42.7316 40.9749 43.0516 40.4098 43.1472 39.7898L44.9701 28.0899C45.0276 27.7173 45.002 27.3368 44.8952 26.9749C44.7885 26.6129 44.603 26.2781 44.3517 25.9937C44.1004 25.7093 43.7892 25.4821 43.4398 25.3277C43.0904 25.1734 42.7111 25.0957 42.3282 25.0999H34.8515ZM25.6048 41.9998H21.6419C20.9412 41.9998 20.2693 41.7259 19.7738 41.2383C19.2783 40.7507 19 40.0894 19 39.3999V30.2999C19 29.6104 19.2783 28.949 19.7738 28.4614C20.2693 27.9739 20.9412 27.6999 21.6419 27.6999H25.6048" fill="url(#paint0_linear_796_1024)"/>
<defs>
<linearGradient id="paint0_linear_796_1024" x1="43.1429" y1="18.3636" x2="21.3636" y2="40.3117" gradientUnits="userSpaceOnUse">
<stop stop-color="#5390E3"/>
<stop offset="1" stop-color="#1357B3"/>
</linearGradient>
</defs>
</svg>
