<svg width="64" height="64" viewBox="0 0 64 64" fill="none" xmlns="http://www.w3.org/2000/svg">
<circle cx="32" cy="32" r="28" fill="#151B26"/>
<path fill-rule="evenodd" clip-rule="evenodd" d="M41.6 22H22.4C21.4278 22 20.5857 22.5859 20.2095 23.4221C20.3365 23.4492 20.4602 23.5016 20.5732 23.5807L32 31.5797L43.4268 23.5807C43.5398 23.5016 43.6635 23.4492 43.7905 23.4221C43.4143 22.5859 42.5722 22 41.6 22ZM44 25.6206L32.5732 33.6188C32.2289 33.8598 31.7711 33.8598 31.4268 33.6188L20 25.6206V38.8C20 40.12 21.08 41.2 22.4 41.2H41.6C42.92 41.2 44 40.12 44 38.8V25.6206Z" fill="url(#paint0_linear_796_1023)"/>
<defs>
<linearGradient id="paint0_linear_796_1023" x1="42.2857" y1="23.7455" x2="26.6214" y2="43.4776" gradientUnits="userSpaceOnUse">
<stop stop-color="#5390E3"/>
<stop offset="1" stop-color="#1357B3"/>
</linearGradient>
</defs>
</svg>
