<svg width="64" height="64" viewBox="0 0 64 64" fill="none" xmlns="http://www.w3.org/2000/svg">
<circle cx="32" cy="32" r="28" fill="#151B26"/>
<path d="M19 22C19 21.4477 19.4477 21 20 21H27.1C28.5322 21 29.9057 21.5689 30.9184 22.5816C31.9311 23.5943 32.5 24.9678 32.5 26.4V45.3C32.5 44.2259 32.0733 43.1957 31.3138 42.4362C30.5543 41.6767 29.5241 41.25 28.45 41.25H20C19.4477 41.25 19 40.8023 19 40.25V22Z" fill="url(#paint0_linear_796_1021)"/>
<path d="M46 22C46 21.4477 45.5523 21 45 21H37.9C36.4678 21 35.0943 21.5689 34.0816 22.5816C33.0689 23.5943 32.5 24.9678 32.5 26.4V45.3C32.5 44.2259 32.9267 43.1957 33.6862 42.4362C34.4457 41.6767 35.4759 41.25 36.55 41.25H45C45.5523 41.25 46 40.8023 46 40.25V22Z" fill="url(#paint1_linear_796_1021)"/>
<defs>
<linearGradient id="paint0_linear_796_1021" x1="31.5357" y1="23.2091" x2="14.1822" y2="32.9247" gradientUnits="userSpaceOnUse">
<stop stop-color="#5390E3"/>
<stop offset="1" stop-color="#1357B3"/>
</linearGradient>
<linearGradient id="paint1_linear_796_1021" x1="45.0357" y1="23.2091" x2="27.6822" y2="32.9247" gradientUnits="userSpaceOnUse">
<stop stop-color="#5390E3"/>
<stop offset="1" stop-color="#1357B3"/>
</linearGradient>
</defs>
</svg>
