<svg width="36" height="36" viewBox="0 0 36 36" fill="none" xmlns="http://www.w3.org/2000/svg">
<g clip-path="url(#clip0_3_652)">
<path d="M18.0002 22.5C20.4855 22.5 22.5002 20.4853 22.5002 18C22.5002 15.5147 20.4855 13.5 18.0002 13.5C15.515 13.5 13.5002 15.5147 13.5002 18C13.5002 20.4853 15.515 22.5 18.0002 22.5Z" stroke="url(#paint0_linear_3_652)" stroke-width="3.00312" stroke-linecap="round" stroke-linejoin="round"/>
<path d="M29.1002 22.5C28.9006 22.9524 28.841 23.4543 28.9292 23.9409C29.0175 24.4275 29.2494 24.8765 29.5952 25.23L29.6852 25.32C29.9642 25.5986 30.1855 25.9295 30.3364 26.2937C30.4874 26.6579 30.5651 27.0483 30.5651 27.4425C30.5651 27.8367 30.4874 28.2271 30.3364 28.5913C30.1855 28.9555 29.9642 29.2864 29.6852 29.565C29.4066 29.8439 29.0758 30.0652 28.7116 30.2162C28.3474 30.3672 27.957 30.4449 27.5627 30.4449C27.1685 30.4449 26.7781 30.3672 26.4139 30.2162C26.0497 30.0652 25.7189 29.8439 25.4402 29.565L25.3502 29.475C24.9967 29.1292 24.5477 28.8972 24.0611 28.809C23.5745 28.7208 23.0727 28.7803 22.6202 28.98C22.1766 29.1701 21.7982 29.4859 21.5317 29.8883C21.2652 30.2907 21.1222 30.7623 21.1202 31.245V31.5C21.1202 32.2956 20.8042 33.0587 20.2416 33.6213C19.679 34.1839 18.9159 34.5 18.1202 34.5C17.3246 34.5 16.5615 34.1839 15.9989 33.6213C15.4363 33.0587 15.1202 32.2956 15.1202 31.5V31.365C15.1086 30.8685 14.9479 30.387 14.659 29.9831C14.3701 29.5791 13.9663 29.2714 13.5002 29.1C13.0478 28.9003 12.546 28.8408 12.0594 28.929C11.5728 29.0172 11.1238 29.2492 10.7702 29.595L10.6802 29.685C10.4016 29.9639 10.0708 30.1852 9.70657 30.3362C9.34237 30.4872 8.95199 30.5649 8.55774 30.5649C8.1635 30.5649 7.77312 30.4872 7.40892 30.3362C7.04473 30.1852 6.71386 29.9639 6.43524 29.685C6.15632 29.4064 5.93504 29.0755 5.78407 28.7113C5.63309 28.3471 5.55538 27.9567 5.55538 27.5625C5.55538 27.1683 5.63309 26.7779 5.78407 26.4137C5.93504 26.0495 6.15632 25.7186 6.43524 25.44L6.52524 25.35C6.87105 24.9965 7.10302 24.5475 7.19125 24.0609C7.27948 23.5743 7.21992 23.0724 7.02024 22.62C6.8301 22.1763 6.51438 21.798 6.11194 21.5315C5.70951 21.2649 5.23792 21.1219 4.75524 21.12H4.50024C3.70459 21.12 2.94153 20.8039 2.37892 20.2413C1.81631 19.6787 1.50024 18.9156 1.50024 18.12C1.50024 17.3244 1.81631 16.5613 2.37892 15.9987C2.94153 15.4361 3.70459 15.12 4.50024 15.12H4.63524C5.13174 15.1084 5.61325 14.9477 6.01719 14.6588C6.42113 14.3699 6.72882 13.9661 6.90024 13.5C7.09992 13.0476 7.15948 12.5457 7.07125 12.0591C6.98302 11.5725 6.75105 11.1235 6.40524 10.77L6.31524 10.68C6.03632 10.4014 5.81504 10.0705 5.66407 9.70632C5.51309 9.34213 5.43538 8.95175 5.43538 8.5575C5.43538 8.16325 5.51309 7.77287 5.66407 7.40868C5.81504 7.04448 6.03632 6.71362 6.31524 6.435C6.59386 6.15607 6.92473 5.93479 7.28892 5.78382C7.65312 5.63285 8.0435 5.55514 8.43774 5.55514C8.83199 5.55514 9.22237 5.63285 9.58657 5.78382C9.95076 5.93479 10.2816 6.15607 10.5602 6.435L10.6502 6.525C11.0038 6.87081 11.4528 7.10278 11.9394 7.19101C12.426 7.27924 12.9278 7.21967 13.3802 7.02H13.5002C13.9439 6.82986 14.3223 6.51413 14.5888 6.1117C14.8553 5.70926 14.9983 5.23768 15.0002 4.755V4.5C15.0002 3.70435 15.3163 2.94129 15.8789 2.37868C16.4415 1.81607 17.2046 1.5 18.0002 1.5C18.7959 1.5 19.559 1.81607 20.1216 2.37868C20.6842 2.94129 21.0002 3.70435 21.0002 4.5V4.635C21.0022 5.11768 21.1452 5.58926 21.4117 5.9917C21.6782 6.39413 22.0566 6.70986 22.5002 6.9C22.9527 7.09967 23.4545 7.15924 23.9411 7.07101C24.4277 6.98278 24.8767 6.75081 25.2302 6.405L25.3202 6.315C25.5989 6.03607 25.9297 5.81479 26.2939 5.66382C26.6581 5.51285 27.0485 5.43514 27.4427 5.43514C27.837 5.43514 28.2274 5.51285 28.5916 5.66382C28.9558 5.81479 29.2866 6.03607 29.5652 6.315C29.8442 6.59362 30.0655 6.92448 30.2164 7.28868C30.3674 7.65287 30.4451 8.04325 30.4451 8.4375C30.4451 8.83175 30.3674 9.22213 30.2164 9.58632C30.0655 9.95052 29.8442 10.2814 29.5652 10.56L29.4752 10.65C29.1294 11.0035 28.8975 11.4525 28.8092 11.9391C28.721 12.4257 28.7806 12.9276 28.9802 13.38V13.5C29.1704 13.9437 29.4861 14.322 29.8885 14.5885C30.291 14.8551 30.7626 14.9981 31.2452 15H31.5002C32.2959 15 33.059 15.3161 33.6216 15.8787C34.1842 16.4413 34.5002 17.2044 34.5002 18C34.5002 18.7956 34.1842 19.5587 33.6216 20.1213C33.059 20.6839 32.2959 21 31.5002 21H31.3652C30.8826 21.0019 30.411 21.1449 30.0085 21.4115C29.6061 21.678 29.2904 22.0563 29.1002 22.5V22.5Z" stroke="url(#paint1_linear_3_652)" stroke-width="3.00312" stroke-linecap="round" stroke-linejoin="round"/>
</g>
<defs>
<linearGradient id="paint0_linear_3_652" x1="21.8574" y1="14.3182" x2="14.3184" y2="21.9156" gradientUnits="userSpaceOnUse">
<stop stop-color="#5390E3"/>
<stop offset="1" stop-color="#1357B3"/>
</linearGradient>
<linearGradient id="paint1_linear_3_652" x1="32.1431" y1="4.5" x2="4.50025" y2="32.3571" gradientUnits="userSpaceOnUse">
<stop stop-color="#5390E3"/>
<stop offset="1" stop-color="#1357B3"/>
</linearGradient>
<clipPath id="clip0_3_652">
<rect width="36" height="36" fill="white"/>
</clipPath>
</defs>
</svg>
